<svg width="23" height="33" viewBox="0 0 23 33" fill="none" xmlns="http://www.w3.org/2000/svg">
<path d="M6.27414 7.37861C0.246347 16.8798 -0.758286 20.1143 0.447273 24.7639C2.25561 31.3339 10.6945 34.2651 17.4256 30.8285C19.033 30.0199 20.8413 28.4026 21.4441 27.3919C22.951 24.4606 22.6497 18.4971 20.8413 14.8583C18.6311 10.4109 12.0005 -7.0794e-06 11.3978 -7.0794e-06C11.0964 -7.0794e-06 8.78572 3.33553 6.27414 7.37861ZM19.3344 15.768C21.9464 21.2262 21.5446 24.8649 18.0283 28.2005C15.5168 30.6263 10.3931 31.536 9.68989 29.6155C9.48897 29.0091 10.8955 27.9983 12.8043 27.2908C17.727 25.6735 18.832 21.8326 15.9186 16.0712C14.4117 13.2411 14.6126 11.1185 16.3205 11.1185C16.7223 11.1185 18.0283 13.2411 19.3344 15.768Z" fill="#3D3070"/>
</svg>
