<svg width="142" height="135" viewBox="0 0 142 135" fill="none" xmlns="http://www.w3.org/2000/svg">
<path d="M7.47968 3.5303C5.97273 8.98845 6.0732 10.8078 8.18293 11.4143C9.08709 11.7175 17.8274 14.2445 27.4719 17.1757C48.7701 23.4425 48.0668 23.1392 55.702 30.72L58.7159 33.7523L60.6247 31.2254C61.6294 29.8103 63.4377 27.5866 64.5428 26.2726C66.6525 23.8468 66.6525 23.8468 64.7437 21.9263C63.6386 20.9155 62.5335 20.1069 62.2322 20.1069C61.9308 20.1069 60.4238 18.894 58.9169 17.4789C57.4099 16.0638 55.4007 14.3455 54.5969 13.5369C53.1905 12.324 49.4733 11.1111 24.6589 3.42922C20.1381 2.11522 14.6126 0.599064 12.5028 0.295834C8.58478 -0.310631 8.48432 -0.310631 7.47968 3.5303Z" fill="#FAFAFA"/>
<path d="M89.1563 30.9222C87.2475 32.9438 85.7406 35.0664 85.7406 35.4707C85.7406 37.4922 81.5211 35.875 77.1007 32.2362L72.178 28.1931L68.1595 32.5394C65.9493 34.8642 64.3419 37.189 64.4424 37.7954C64.8442 38.8062 68.8628 59.6281 77.804 106.528C80.0142 118.253 82.3248 128.967 82.8271 130.483C84.9369 135.739 91.1656 136.447 100.006 132.404C111.359 127.249 121.104 123.206 122.309 123.206C123.113 123.206 124.318 124.216 125.122 125.328L126.529 127.552L134.264 123.913L142 120.274L140.493 116.13C139.689 113.805 136.977 107.134 134.566 101.171C123.515 74.4864 117.889 60.4367 117.889 59.6281C117.889 59.2238 118.793 58.0108 119.898 57.0001C124.118 53.1591 123.012 51.643 106.034 37.4922C104.226 35.9761 100.911 33.0448 98.7003 30.9222C96.3897 28.9007 94.1795 27.1824 93.5767 27.1824C92.9739 27.1824 90.9647 28.9007 89.1563 30.9222ZM102.518 72.667C106.637 75.1939 107.441 76.8112 114.373 97.7341C119.195 112.592 119.898 115.524 118.793 116.636C116.683 118.657 94.7823 128.259 92.2707 128.259C87.9508 128.259 86.9461 125.429 83.7313 104.809C82.1239 93.7921 80.7174 83.5833 80.7174 81.9661C80.7174 77.923 83.229 75.1939 89.2568 72.7681C95.6864 70.2412 98.4994 70.1401 102.518 72.667Z" fill="#FAFAFA"/>
<path d="M91.7684 74.9918C87.9508 76.4069 86.8457 77.2155 88.2522 77.4177C89.3573 77.6198 91.2661 78.0241 92.3712 78.2263C93.6772 78.5295 96.1888 81.3597 98.5999 85.3017C102.819 92.0738 105.03 93.2867 106.737 89.9512C107.642 88.435 106.838 86.6157 102.819 80.3489C100.107 76.1037 97.6957 72.667 97.5953 72.7681C97.3943 72.7681 94.7823 73.7789 91.7684 74.9918Z" fill="#FAFAFA"/>
<path d="M6.27414 40.6256C0.246347 50.1269 -0.758286 53.3613 0.447273 58.0109C2.25561 64.5809 10.6945 67.5121 17.4256 64.0755C19.033 63.2669 20.8413 61.6496 21.4441 60.6389C22.951 57.7076 22.6497 51.7441 20.8413 48.1053C18.6311 43.6579 12.0005 33.247 11.3978 33.247C11.0964 33.247 8.78572 36.5825 6.27414 40.6256ZM19.3344 49.015C21.9464 54.4732 21.5446 58.1119 18.0283 61.4475C15.5168 63.8733 10.3931 64.783 9.68989 62.8626C9.48897 62.2561 10.8955 61.2453 12.8043 60.5378C17.727 58.9206 18.832 55.0796 15.9186 49.3182C14.4117 46.4881 14.6126 44.3655 16.3205 44.3655C16.7223 44.3655 18.0283 46.4881 19.3344 49.015Z" fill="#FAFAFA"/>
</svg>
